<svg id="media-services_grid" data-name="media-services/grid" xmlns="http://www.w3.org/2000/svg" xmlns:xlink="http://www.w3.org/1999/xlink" width="24" height="24" viewBox="0 0 24 24">
  <defs>
    <clipPath id="clip-path">
      <path id="Rectangle_3" data-name="Rectangle 3" d="M11,18a1,1,0,0,1-1-1V11a1,1,0,0,1,1-1h6a1,1,0,0,1,1,1v6a1,1,0,0,1-1,1ZM1,18a1,1,0,0,1-1-1V11a1,1,0,0,1,1-1H7a1,1,0,0,1,1,1v6a1,1,0,0,1-1,1ZM11,8a1,1,0,0,1-1-1V1a1,1,0,0,1,1-1h6a1,1,0,0,1,1,1V7a1,1,0,0,1-1,1ZM1,8A1,1,0,0,1,0,7V1A1,1,0,0,1,1,0H7A1,1,0,0,1,8,1V7A1,1,0,0,1,7,8Z" transform="translate(3 3)" fill="#42526e"/>
    </clipPath>
  </defs>
  <g id="Group_74" data-name="Group 74">
    <path id="Rectangle_3-2" data-name="Rectangle 3" d="M11,18a1,1,0,0,1-1-1V11a1,1,0,0,1,1-1h6a1,1,0,0,1,1,1v6a1,1,0,0,1-1,1ZM1,18a1,1,0,0,1-1-1V11a1,1,0,0,1,1-1H7a1,1,0,0,1,1,1v6a1,1,0,0,1-1,1ZM11,8a1,1,0,0,1-1-1V1a1,1,0,0,1,1-1h6a1,1,0,0,1,1,1V7a1,1,0,0,1-1,1ZM1,8A1,1,0,0,1,0,7V1A1,1,0,0,1,1,0H7A1,1,0,0,1,8,1V7A1,1,0,0,1,7,8Z" transform="translate(3 3)" fill="#42526e"/>
    <g id="Mask_Group_74" data-name="Mask Group 74" clip-path="url(#clip-path)">
      <g id="_Color" data-name="↳ 🎨Color">
        <path id="N500" d="M0,24H24V0H0Z" fill="#42526e"/>
      </g>
    </g>
  </g>
</svg>
