<svg xmlns="http://www.w3.org/2000/svg" viewBox="0 0 708.71 86.4"><defs><style>.cls-1{fill:#42526e;}</style></defs><g id="Layer_2" data-name="Layer 2"><g id="Layer_1-2" data-name="Layer 1"><path class="cls-1" d="M0,76.32,5.4,64.2c6.72,5.4,17.4,9.24,27.72,9.24,13.08,0,18.6-4.68,18.6-10.92C51.72,44.4,1.8,56.28,1.8,25.08,1.8,11.52,12.6,0,35.64,0c10.08,0,20.64,2.64,28,7.44L58.68,19.56A46.68,46.68,0,0,0,35.52,13c-13,0-18.24,5-18.24,11.4,0,17.88,49.8,6.24,49.8,37.08,0,13.44-10.92,25-34,25C20,86.4,7,82.32,0,76.32Z"/><path class="cls-1" d="M137,65.76H95L86.76,85.2H70.68l37.8-84h15.36l37.92,84H145.44Zm-5.16-12.24L116,16.8,100.32,53.52Z"/><path class="cls-1" d="M247.08,1.2v84h-15.6v-36H188v36h-15.6V1.2H188V35.88h43.44V1.2Z"/><path class="cls-1" d="M332.64,72.12V85.2h-63V1.2H331V14.28H285.24V36.12H325.8V49H285.24V72.12Z"/><path class="cls-1" d="M424.68,62.4c0,14.4-11.28,22.8-32.88,22.8H350V1.2H389.4c20.16,0,31,8.52,31,21.84,0,8.64-4.32,15-10.79,18.48C418.56,44.4,424.68,51.48,424.68,62.4Zm-59-49V36.6h22.08c10.8,0,16.92-3.84,16.92-11.52s-6.12-11.64-16.92-11.64ZM409,60.84c0-8.4-6.36-12.12-18.12-12.12h-25.2V73h25.2C402.6,73,409,69.24,409,60.84Z"/><path class="cls-1" d="M531.83,42.24h14.76V75.72c-8.76,7.08-21,10.68-32.88,10.68-26,0-45.24-18.12-45.24-43.2S487.67,0,514,0c14,0,25.8,4.68,33.72,13.68l-9.84,9.6a31.18,31.18,0,0,0-23.16-9.6c-17.88,0-30.48,12.12-30.48,29.52,0,17,12.6,29.52,30.36,29.52a33.93,33.93,0,0,0,17.28-4.32Z"/><path class="cls-1" d="M567.11,1.2h15.6v84h-15.6Z"/><path class="cls-1" d="M660.35,85.2,643.19,60.6a29.24,29.24,0,0,1-3.24.12H621V85.2h-15.6V1.2H640c22.08,0,35.76,11.28,35.76,29.88,0,12.72-6.48,22.08-17.88,26.52l19.32,27.6ZM639.23,14.4H621V47.88h18.24c13.68,0,20.76-6.24,20.76-16.8S652.91,14.4,639.23,14.4Z"/><path class="cls-1" d="M693.11,1.2h15.6v84h-15.6Z"/></g></g></svg>