<svg id="standard_social_newsfeed" data-name="standard/social/newsfeed" xmlns="http://www.w3.org/2000/svg" xmlns:xlink="http://www.w3.org/1999/xlink" width="24" height="24" viewBox="0 0 24 24">
  <defs>
    <clipPath id="clip-path">
      <path id="Combined_Shape" data-name="Combined Shape" d="M2,16a2,2,0,0,1-2-2V4A1,1,0,0,1,1,3H3V2A2,2,0,0,1,5,0H16a2,2,0,0,1,2,2V14a2,2,0,0,1-2,2Zm3-2H15a1,1,0,0,0,1-1V2H5Zm-3-.5a.5.5,0,1,0,1,0V5H2ZM7,10V8h7v2ZM7,7V4h7V7Z" transform="translate(3 4)" fill="#d8d8d8"/>
    </clipPath>
  </defs>
  <g id="Group_220" data-name="Group 220">
    <path id="Combined_Shape-2" data-name="Combined Shape" d="M2,16a2,2,0,0,1-2-2V4A1,1,0,0,1,1,3H3V2A2,2,0,0,1,5,0H16a2,2,0,0,1,2,2V14a2,2,0,0,1-2,2Zm3-2H15a1,1,0,0,0,1-1V2H5Zm-3-.5a.5.5,0,1,0,1,0V5H2ZM7,10V8h7v2ZM7,7V4h7V7Z" transform="translate(3 4)" fill="#d8d8d8"/>
    <g id="Mask_Group_220" data-name="Mask Group 220" clip-path="url(#clip-path)">
      <g id="_Color" data-name="↳ 🎨Color">
        <path id="N500" d="M0,24H24V0H0Z" fill="#42526e"/>
      </g>
    </g>
  </g>
</svg>
