<svg id="standard_social_time" data-name="standard/social/time" xmlns="http://www.w3.org/2000/svg" xmlns:xlink="http://www.w3.org/1999/xlink" width="24" height="24" viewBox="0 0 24 24">
  <defs>
    <clipPath id="clip-path">
      <path id="Mask" d="M0,10A10,10,0,1,1,10,20,10.011,10.011,0,0,1,0,10Zm2,0a8,8,0,1,0,8-8A8.01,8.01,0,0,0,2,10Zm9.771,3.185L9.3,10.716A1,1,0,0,1,9,10V4a1,1,0,0,1,2,0V9.587l2.185,2.184a1,1,0,0,1-1.414,1.414Z" transform="translate(2 2)" fill="none" stroke="#42526e" stroke-miterlimit="10" stroke-width="2"/>
    </clipPath>
  </defs>
  <g id="Group_231" data-name="Group 231">
    <g id="Mask-2" data-name="Mask" transform="translate(2 2)" fill="none" stroke-miterlimit="10">
      <path d="M0,10A10,10,0,1,1,10,20,10.011,10.011,0,0,1,0,10Zm2,0a8,8,0,1,0,8-8A8.01,8.01,0,0,0,2,10Zm9.771,3.185L9.3,10.716A1,1,0,0,1,9,10V4a1,1,0,0,1,2,0V9.587l2.185,2.184a1,1,0,0,1-1.414,1.414Z" stroke="none"/>
      <path d="M 9.999899864196777 0 C 15.51420021057129 0 19.99979972839355 4.485599517822266 19.99979972839355 9.999899864196777 C 19.99979972839355 15.51420021057129 15.51420021057129 19.99979972839355 9.999899864196777 19.99979972839355 C 4.485599517822266 19.99979972839355 0 15.51420021057129 0 9.999899864196777 C 0 4.485599517822266 4.485599517822266 0 9.999899864196777 0 Z M 9.999899864196777 18 C 14.41079998016357 18 18 14.41079998016357 18 9.999899864196777 C 18 5.58899974822998 14.41079998016357 1.999799728393555 9.999899864196777 1.999799728393555 C 5.58899974822998 1.999799728393555 1.999799728393555 5.58899974822998 1.999799728393555 9.999899864196777 C 1.999799728393555 14.41079998016357 5.58899974822998 18 9.999899864196777 18 Z M 9.999899864196777 2.999700546264648 C 10.55249977111816 2.999700546264648 10.99979972839355 3.447900772094727 10.99979972839355 3.999599456787109 L 10.99979972839355 6.000299453735352 C 10.99979972839355 6.001039505004883 10.99977016448975 6.001810073852539 10.99977016448975 6.00255012512207 C 10.99977016448975 6.003290176391602 10.99979972839355 6.004059791564941 10.99979972839355 6.004799842834473 L 10.99979972839355 9.586799621582031 L 13.18499946594238 11.77110004425049 C 13.5738000869751 12.16079998016357 13.5738000869751 12.79619979858398 13.18499946594238 13.18499946594238 C 12.99059963226318 13.37985038757324 12.73432922363281 13.47727012634277 12.47805023193359 13.47727012634277 C 12.22177982330322 13.47727012634277 11.96549987792969 13.37985038757324 11.77110004425049 13.18499946594238 L 9.300600051879883 10.71630001068115 C 9.116100311279297 10.53450012207031 9 10.28339958190918 9 10.0044002532959 L 9 6.004799842834473 C 9 6.004059791564941 9.000029563903809 6.003299713134766 9.000029563903809 6.002559661865234 C 9.000029563903809 6.001819610595703 9 6.001039505004883 9 6.000299453735352 L 9 3.999599456787109 C 9 3.447900772094727 9.447299957275391 2.999700546264648 9.999899864196777 2.999700546264648 Z" stroke="none" fill="#42526e"/>
    </g>
    <g id="Mask_Group_231" data-name="Mask Group 231" clip-path="url(#clip-path)">
      <g id="_Color" data-name="↳ 🎨Color">
        <path id="N500" d="M0,24H24V0H0Z" fill="#42526e"/>
      </g>
    </g>
  </g>
</svg>
