<svg id="standard_action_search" data-name="standard/action/search" xmlns="http://www.w3.org/2000/svg" xmlns:xlink="http://www.w3.org/1999/xlink" width="24" height="24" viewBox="0 0 24 24">
  <defs>
    <clipPath id="clip-path">
      <path id="Combined_Shape" data-name="Combined Shape" d="M16.663,17.8a.989.989,0,0,1-.713-.3l-3.937-4.006a7.506,7.506,0,1,1,1.422-1.406l3.942,4.01a1,1,0,0,1-.714,1.7ZM7.5,2A5.5,5.5,0,1,0,13,7.5,5.506,5.506,0,0,0,7.5,2Z" transform="translate(3 3)" fill="#42526e"/>
    </clipPath>
  </defs>
  <g id="Group_132" data-name="Group 132">
    <path id="Combined_Shape-2" data-name="Combined Shape" d="M16.663,17.8a.989.989,0,0,1-.713-.3l-3.937-4.006a7.506,7.506,0,1,1,1.422-1.406l3.942,4.01a1,1,0,0,1-.714,1.7ZM7.5,2A5.5,5.5,0,1,0,13,7.5,5.506,5.506,0,0,0,7.5,2Z" transform="translate(3 3)" fill="#42526e"/>
    <g id="Mask_Group_132" data-name="Mask Group 132" clip-path="url(#clip-path)">
      <g id="_Color" data-name="↳ 🎨Color">
        <path id="N500" d="M0,24H24V0H0Z" fill="#42526e"/>
      </g>
    </g>
  </g>
</svg>
