<svg id="standard_navigation_menu" data-name="standard/navigation/menu" xmlns="http://www.w3.org/2000/svg" xmlns:xlink="http://www.w3.org/1999/xlink" width="24" height="24" viewBox="0 0 24 24">
  <defs>
    <clipPath id="clip-path">
      <path id="icon" d="M1,10A1,1,0,1,1,1,8H13a1,1,0,1,1,0,2ZM1,6A1,1,0,0,1,1,4H13a1,1,0,1,1,0,2ZM1,2A1,1,0,0,1,1,0H13a1,1,0,1,1,0,2Z" transform="translate(5 7)" fill="#42526e"/>
    </clipPath>
    <clipPath id="clip-path-2"/>
  </defs>
  <g id="Group_187" data-name="Group 187">
    <path id="icon-2" data-name="icon" d="M1,10A1,1,0,1,1,1,8H13a1,1,0,1,1,0,2ZM1,6A1,1,0,0,1,1,4H13a1,1,0,1,1,0,2ZM1,2A1,1,0,0,1,1,0H13a1,1,0,1,1,0,2Z" transform="translate(5 7)" fill="#42526e"/>
    <g id="Mask_Group_187" data-name="Mask Group 187" clip-path="url(#clip-path)">
      <g id="_Color" data-name="↳ 🎨Color">
        <path id="N500" d="M0,24H24V0H0Z" fill="#42526e"/>
      </g>
    </g>
  </g>
</svg>
